<?xml version="1.0" encoding="UTF-8" standalone="no"?>
<!DOCTYPE svg PUBLIC "-//W3C//DTD SVG 1.1//EN"
 "http://www.w3.org/Graphics/SVG/1.1/DTD/svg11.dtd">
<!-- Generated by graphviz version 2.26.3 (20100126.1600)
 -->
<!-- Title: name Pages: 1 -->
<svg width="796pt" height="554pt"
 viewBox="0.00 0.00 796.00 554.00" xmlns="http://www.w3.org/2000/svg" xmlns:xlink="http://www.w3.org/1999/xlink">
<g id="graph1" class="graph" transform="scale(1 1) rotate(0) translate(4 550)">
<title>name</title>
<!-- stores -->
<g id="node1" class="node"><title>stores</title>
<polygon fill="Lavender" stroke="Lavender" points="73,-306 73,-329 195,-329 195,-306 73,-306"/>
<polygon fill="none" stroke="black" points="73,-306 73,-329 195,-329 195,-306 73,-306"/>
<text text-anchor="start" x="117" y="-314.7" font-family="Helvetica,sans-Serif" font-weight="bold" font-size="12.00">stores</text>
<polygon fill="White" stroke="White" points="73,-288 73,-306 149,-306 149,-288 73,-288"/>
<polygon fill="none" stroke="black" points="73,-288 73,-306 149,-306 149,-288 73,-288"/>
<text text-anchor="start" x="76" y="-294.2" font-family="Helvetica,sans-Serif" font-size="12.00">stor_id</text>
<polygon fill="White" stroke="White" points="149,-288 149,-306 195,-306 195,-288 149,-288"/>
<polygon fill="none" stroke="black" points="149,-288 149,-306 195,-306 195,-288 149,-288"/>
<text text-anchor="start" x="152" y="-294.2" font-family="Helvetica,sans-Serif" font-size="12.00">char</text>
<polygon fill="White" stroke="White" points="73,-270 73,-288 149,-288 149,-270 73,-270"/>
<polygon fill="none" stroke="black" points="73,-270 73,-288 149,-288 149,-270 73,-270"/>
<text text-anchor="start" x="76" y="-276.2" font-family="Helvetica,sans-Serif" font-size="12.00">stor_name</text>
<polygon fill="White" stroke="White" points="149,-270 149,-288 195,-288 195,-270 149,-270"/>
<polygon fill="none" stroke="black" points="149,-270 149,-288 195,-288 195,-270 149,-270"/>
<text text-anchor="start" x="152" y="-276.2" font-family="Helvetica,sans-Serif" font-size="12.00">varchar</text>
<polygon fill="White" stroke="White" points="73,-252 73,-270 149,-270 149,-252 73,-252"/>
<polygon fill="none" stroke="black" points="73,-252 73,-270 149,-270 149,-252 73,-252"/>
<text text-anchor="start" x="76" y="-258.2" font-family="Helvetica,sans-Serif" font-size="12.00">stor_address</text>
<polygon fill="White" stroke="White" points="149,-252 149,-270 195,-270 195,-252 149,-252"/>
<polygon fill="none" stroke="black" points="149,-252 149,-270 195,-270 195,-252 149,-252"/>
<text text-anchor="start" x="152" y="-258.2" font-family="Helvetica,sans-Serif" font-size="12.00">varchar</text>
<polygon fill="White" stroke="White" points="73,-234 73,-252 149,-252 149,-234 73,-234"/>
<polygon fill="none" stroke="black" points="73,-234 73,-252 149,-252 149,-234 73,-234"/>
<text text-anchor="start" x="76" y="-240.2" font-family="Helvetica,sans-Serif" font-size="12.00">city</text>
<polygon fill="White" stroke="White" points="149,-234 149,-252 195,-252 195,-234 149,-234"/>
<polygon fill="none" stroke="black" points="149,-234 149,-252 195,-252 195,-234 149,-234"/>
<text text-anchor="start" x="152" y="-240.2" font-family="Helvetica,sans-Serif" font-size="12.00">varchar</text>
<polygon fill="White" stroke="White" points="73,-216 73,-234 149,-234 149,-216 73,-216"/>
<polygon fill="none" stroke="black" points="73,-216 73,-234 149,-234 149,-216 73,-216"/>
<text text-anchor="start" x="76" y="-222.2" font-family="Helvetica,sans-Serif" font-size="12.00">state</text>
<polygon fill="White" stroke="White" points="149,-216 149,-234 195,-234 195,-216 149,-216"/>
<polygon fill="none" stroke="black" points="149,-216 149,-234 195,-234 195,-216 149,-216"/>
<text text-anchor="start" x="152" y="-222.2" font-family="Helvetica,sans-Serif" font-size="12.00">char</text>
<polygon fill="White" stroke="White" points="73,-198 73,-216 149,-216 149,-198 73,-198"/>
<polygon fill="none" stroke="black" points="73,-198 73,-216 149,-216 149,-198 73,-198"/>
<text text-anchor="start" x="76" y="-204.2" font-family="Helvetica,sans-Serif" font-size="12.00">zip</text>
<polygon fill="White" stroke="White" points="149,-198 149,-216 195,-216 195,-198 149,-198"/>
<polygon fill="none" stroke="black" points="149,-198 149,-216 195,-216 195,-198 149,-198"/>
<text text-anchor="start" x="152" y="-204.2" font-family="Helvetica,sans-Serif" font-size="12.00">char</text>
</g>
<!-- discounts -->
<g id="node2" class="node"><title>discounts</title>
<polygon fill="Lavender" stroke="Lavender" points="8,-509 8,-532 129,-532 129,-509 8,-509"/>
<polygon fill="none" stroke="black" points="8,-509 8,-532 129,-532 129,-509 8,-509"/>
<text text-anchor="start" x="42.5" y="-517.7" font-family="Helvetica,sans-Serif" font-weight="bold" font-size="12.00">discounts</text>
<polygon fill="White" stroke="White" points="8,-491 8,-509 82,-509 82,-491 8,-491"/>
<polygon fill="none" stroke="black" points="8,-491 8,-509 82,-509 82,-491 8,-491"/>
<text text-anchor="start" x="11" y="-497.2" font-family="Helvetica,sans-Serif" font-size="12.00">discounttype</text>
<polygon fill="White" stroke="White" points="82,-491 82,-509 129,-509 129,-491 82,-491"/>
<polygon fill="none" stroke="black" points="82,-491 82,-509 129,-509 129,-491 82,-491"/>
<text text-anchor="start" x="85" y="-497.2" font-family="Helvetica,sans-Serif" font-size="12.00">varchar</text>
<polygon fill="White" stroke="White" points="8,-473 8,-491 82,-491 82,-473 8,-473"/>
<polygon fill="none" stroke="black" points="8,-473 8,-491 82,-491 82,-473 8,-473"/>
<text text-anchor="start" x="11" y="-479.2" font-family="Helvetica,sans-Serif" font-size="12.00">stor_id</text>
<polygon fill="White" stroke="White" points="82,-473 82,-491 129,-491 129,-473 82,-473"/>
<polygon fill="none" stroke="black" points="82,-473 82,-491 129,-491 129,-473 82,-473"/>
<text text-anchor="start" x="85" y="-479.2" font-family="Helvetica,sans-Serif" font-size="12.00">char</text>
<polygon fill="White" stroke="White" points="8,-455 8,-473 82,-473 82,-455 8,-455"/>
<polygon fill="none" stroke="black" points="8,-455 8,-473 82,-473 82,-455 8,-455"/>
<text text-anchor="start" x="11" y="-461.2" font-family="Helvetica,sans-Serif" font-size="12.00">lowqty</text>
<polygon fill="White" stroke="White" points="82,-455 82,-473 129,-473 129,-455 82,-455"/>
<polygon fill="none" stroke="black" points="82,-455 82,-473 129,-473 129,-455 82,-455"/>
<text text-anchor="start" x="85" y="-461.2" font-family="Helvetica,sans-Serif" font-size="12.00">smallint</text>
<polygon fill="White" stroke="White" points="8,-437 8,-455 82,-455 82,-437 8,-437"/>
<polygon fill="none" stroke="black" points="8,-437 8,-455 82,-455 82,-437 8,-437"/>
<text text-anchor="start" x="11" y="-443.2" font-family="Helvetica,sans-Serif" font-size="12.00">highqty</text>
<polygon fill="White" stroke="White" points="82,-437 82,-455 129,-455 129,-437 82,-437"/>
<polygon fill="none" stroke="black" points="82,-437 82,-455 129,-455 129,-437 82,-437"/>
<text text-anchor="start" x="85" y="-443.2" font-family="Helvetica,sans-Serif" font-size="12.00">smallint</text>
<polygon fill="White" stroke="White" points="8,-419 8,-437 82,-437 82,-419 8,-419"/>
<polygon fill="none" stroke="black" points="8,-419 8,-437 82,-437 82,-419 8,-419"/>
<text text-anchor="start" x="11" y="-425.2" font-family="Helvetica,sans-Serif" font-size="12.00">discount</text>
<polygon fill="White" stroke="White" points="82,-419 82,-437 129,-437 129,-419 82,-419"/>
<polygon fill="none" stroke="black" points="82,-419 82,-437 129,-437 129,-419 82,-419"/>
<text text-anchor="start" x="85" y="-425.2" font-family="Helvetica,sans-Serif" font-size="12.00">decimal</text>
</g>
<!-- discounts&#45;&gt;stores -->
<g id="edge2" class="edge"><title>discounts&#45;&gt;stores</title>
<path fill="none" stroke="black" d="M86.913,-415.249C93.8766,-392.881 101.87,-367.204 109.271,-343.432"/>
<polygon fill="black" stroke="black" points="112.661,-344.317 112.292,-333.729 105.978,-342.236 112.661,-344.317"/>
</g>
<!-- jobs -->
<g id="node4" class="node"><title>jobs</title>
<polygon fill="Lavender" stroke="Lavender" points="537,-85 537,-108 638,-108 638,-85 537,-85"/>
<polygon fill="none" stroke="black" points="537,-85 537,-108 638,-108 638,-85 537,-85"/>
<text text-anchor="start" x="576" y="-93.7" font-family="Helvetica,sans-Serif" font-weight="bold" font-size="12.00">jobs</text>
<polygon fill="White" stroke="White" points="537,-67 537,-85 592,-85 592,-67 537,-67"/>
<polygon fill="none" stroke="black" points="537,-67 537,-85 592,-85 592,-67 537,-67"/>
<text text-anchor="start" x="540" y="-73.2" font-family="Helvetica,sans-Serif" font-size="12.00">job_id</text>
<polygon fill="White" stroke="White" points="592,-67 592,-85 638,-85 638,-67 592,-67"/>
<polygon fill="none" stroke="black" points="592,-67 592,-85 638,-85 638,-67 592,-67"/>
<text text-anchor="start" x="595" y="-73.2" font-family="Helvetica,sans-Serif" font-size="12.00">smallint</text>
<polygon fill="White" stroke="White" points="537,-49 537,-67 592,-67 592,-49 537,-49"/>
<polygon fill="none" stroke="black" points="537,-49 537,-67 592,-67 592,-49 537,-49"/>
<text text-anchor="start" x="540" y="-55.2" font-family="Helvetica,sans-Serif" font-size="12.00">job_desc</text>
<polygon fill="White" stroke="White" points="592,-49 592,-67 638,-67 638,-49 592,-49"/>
<polygon fill="none" stroke="black" points="592,-49 592,-67 638,-67 638,-49 592,-49"/>
<text text-anchor="start" x="595" y="-55.2" font-family="Helvetica,sans-Serif" font-size="12.00">varchar</text>
<polygon fill="White" stroke="White" points="537,-31 537,-49 592,-49 592,-31 537,-31"/>
<polygon fill="none" stroke="black" points="537,-31 537,-49 592,-49 592,-31 537,-31"/>
<text text-anchor="start" x="540" y="-37.2" font-family="Helvetica,sans-Serif" font-size="12.00">min_lvl</text>
<polygon fill="White" stroke="White" points="592,-31 592,-49 638,-49 638,-31 592,-31"/>
<polygon fill="none" stroke="black" points="592,-31 592,-49 638,-49 638,-31 592,-31"/>
<text text-anchor="start" x="595" y="-37.2" font-family="Helvetica,sans-Serif" font-size="12.00">smallint</text>
<polygon fill="White" stroke="White" points="537,-13 537,-31 592,-31 592,-13 537,-13"/>
<polygon fill="none" stroke="black" points="537,-13 537,-31 592,-31 592,-13 537,-13"/>
<text text-anchor="start" x="540" y="-19.2" font-family="Helvetica,sans-Serif" font-size="12.00">max_lvl</text>
<polygon fill="White" stroke="White" points="592,-13 592,-31 638,-31 638,-13 592,-13"/>
<polygon fill="none" stroke="black" points="592,-13 592,-31 638,-31 638,-13 592,-13"/>
<text text-anchor="start" x="595" y="-19.2" font-family="Helvetica,sans-Serif" font-size="12.00">smallint</text>
</g>
<!-- employee -->
<g id="node5" class="node"><title>employee</title>
<polygon fill="Lavender" stroke="Lavender" points="532,-324 532,-347 641,-347 641,-324 532,-324"/>
<polygon fill="none" stroke="black" points="532,-324 532,-347 641,-347 641,-324 532,-324"/>
<text text-anchor="start" x="560" y="-332.7" font-family="Helvetica,sans-Serif" font-weight="bold" font-size="12.00">employee</text>
<polygon fill="White" stroke="White" points="532,-306 532,-324 589,-324 589,-306 532,-306"/>
<polygon fill="none" stroke="black" points="532,-306 532,-324 589,-324 589,-306 532,-306"/>
<text text-anchor="start" x="535" y="-312.2" font-family="Helvetica,sans-Serif" font-size="12.00">emp_id</text>
<polygon fill="White" stroke="White" points="589,-306 589,-324 641,-324 641,-306 589,-306"/>
<polygon fill="none" stroke="black" points="589,-306 589,-324 641,-324 641,-306 589,-306"/>
<text text-anchor="start" x="592" y="-312.2" font-family="Helvetica,sans-Serif" font-size="12.00">char</text>
<polygon fill="White" stroke="White" points="532,-288 532,-306 589,-306 589,-288 532,-288"/>
<polygon fill="none" stroke="black" points="532,-288 532,-306 589,-306 589,-288 532,-288"/>
<text text-anchor="start" x="535" y="-294.2" font-family="Helvetica,sans-Serif" font-size="12.00">fname</text>
<polygon fill="White" stroke="White" points="589,-288 589,-306 641,-306 641,-288 589,-288"/>
<polygon fill="none" stroke="black" points="589,-288 589,-306 641,-306 641,-288 589,-288"/>
<text text-anchor="start" x="592" y="-294.2" font-family="Helvetica,sans-Serif" font-size="12.00">varchar</text>
<polygon fill="White" stroke="White" points="532,-270 532,-288 589,-288 589,-270 532,-270"/>
<polygon fill="none" stroke="black" points="532,-270 532,-288 589,-288 589,-270 532,-270"/>
<text text-anchor="start" x="535" y="-276.2" font-family="Helvetica,sans-Serif" font-size="12.00">minit</text>
<polygon fill="White" stroke="White" points="589,-270 589,-288 641,-288 641,-270 589,-270"/>
<polygon fill="none" stroke="black" points="589,-270 589,-288 641,-288 641,-270 589,-270"/>
<text text-anchor="start" x="592" y="-276.2" font-family="Helvetica,sans-Serif" font-size="12.00">char</text>
<polygon fill="White" stroke="White" points="532,-252 532,-270 589,-270 589,-252 532,-252"/>
<polygon fill="none" stroke="black" points="532,-252 532,-270 589,-270 589,-252 532,-252"/>
<text text-anchor="start" x="535" y="-258.2" font-family="Helvetica,sans-Serif" font-size="12.00">lname</text>
<polygon fill="White" stroke="White" points="589,-252 589,-270 641,-270 641,-252 589,-252"/>
<polygon fill="none" stroke="black" points="589,-252 589,-270 641,-270 641,-252 589,-252"/>
<text text-anchor="start" x="592" y="-258.2" font-family="Helvetica,sans-Serif" font-size="12.00">varchar</text>
<polygon fill="White" stroke="White" points="532,-234 532,-252 589,-252 589,-234 532,-234"/>
<polygon fill="none" stroke="black" points="532,-234 532,-252 589,-252 589,-234 532,-234"/>
<text text-anchor="start" x="535" y="-240.2" font-family="Helvetica,sans-Serif" font-size="12.00">job_id</text>
<polygon fill="White" stroke="White" points="589,-234 589,-252 641,-252 641,-234 589,-234"/>
<polygon fill="none" stroke="black" points="589,-234 589,-252 641,-252 641,-234 589,-234"/>
<text text-anchor="start" x="592" y="-240.2" font-family="Helvetica,sans-Serif" font-size="12.00">smallint</text>
<polygon fill="White" stroke="White" points="532,-216 532,-234 589,-234 589,-216 532,-216"/>
<polygon fill="none" stroke="black" points="532,-216 532,-234 589,-234 589,-216 532,-216"/>
<text text-anchor="start" x="535" y="-222.2" font-family="Helvetica,sans-Serif" font-size="12.00">job_lvl</text>
<polygon fill="White" stroke="White" points="589,-216 589,-234 641,-234 641,-216 589,-216"/>
<polygon fill="none" stroke="black" points="589,-216 589,-234 641,-234 641,-216 589,-216"/>
<text text-anchor="start" x="592" y="-222.2" font-family="Helvetica,sans-Serif" font-size="12.00">smallint</text>
<polygon fill="White" stroke="White" points="532,-198 532,-216 589,-216 589,-198 532,-198"/>
<polygon fill="none" stroke="black" points="532,-198 532,-216 589,-216 589,-198 532,-198"/>
<text text-anchor="start" x="535" y="-204.2" font-family="Helvetica,sans-Serif" font-size="12.00">pub_id</text>
<polygon fill="White" stroke="White" points="589,-198 589,-216 641,-216 641,-198 589,-198"/>
<polygon fill="none" stroke="black" points="589,-198 589,-216 641,-216 641,-198 589,-198"/>
<text text-anchor="start" x="592" y="-204.2" font-family="Helvetica,sans-Serif" font-size="12.00">char</text>
<polygon fill="White" stroke="White" points="532,-180 532,-198 589,-198 589,-180 532,-180"/>
<polygon fill="none" stroke="black" points="532,-180 532,-198 589,-198 589,-180 532,-180"/>
<text text-anchor="start" x="535" y="-186.2" font-family="Helvetica,sans-Serif" font-size="12.00">hire_date</text>
<polygon fill="White" stroke="White" points="589,-180 589,-198 641,-198 641,-180 589,-180"/>
<polygon fill="none" stroke="black" points="589,-180 589,-198 641,-198 641,-180 589,-180"/>
<text text-anchor="start" x="592" y="-186.2" font-family="Helvetica,sans-Serif" font-size="12.00">datetime</text>
</g>
<!-- employee&#45;&gt;jobs -->
<g id="edge4" class="edge"><title>employee&#45;&gt;jobs</title>
<path fill="none" stroke="black" d="M586.431,-176.437C586.52,-158.397 586.612,-139.759 586.695,-122.86"/>
<polygon fill="black" stroke="black" points="590.196,-122.601 586.746,-112.584 583.197,-122.566 590.196,-122.601"/>
</g>
<!-- publishers -->
<g id="node7" class="node"><title>publishers</title>
<polygon fill="Lavender" stroke="Lavender" points="395,-94 395,-117 504,-117 504,-94 395,-94"/>
<polygon fill="none" stroke="black" points="395,-94 395,-117 504,-117 504,-94 395,-94"/>
<text text-anchor="start" x="421.5" y="-102.7" font-family="Helvetica,sans-Serif" font-weight="bold" font-size="12.00">publishers</text>
<polygon fill="White" stroke="White" points="395,-76 395,-94 458,-94 458,-76 395,-76"/>
<polygon fill="none" stroke="black" points="395,-76 395,-94 458,-94 458,-76 395,-76"/>
<text text-anchor="start" x="398" y="-82.2" font-family="Helvetica,sans-Serif" font-size="12.00">pub_id</text>
<polygon fill="White" stroke="White" points="458,-76 458,-94 504,-94 504,-76 458,-76"/>
<polygon fill="none" stroke="black" points="458,-76 458,-94 504,-94 504,-76 458,-76"/>
<text text-anchor="start" x="461" y="-82.2" font-family="Helvetica,sans-Serif" font-size="12.00">char</text>
<polygon fill="White" stroke="White" points="395,-58 395,-76 458,-76 458,-58 395,-58"/>
<polygon fill="none" stroke="black" points="395,-58 395,-76 458,-76 458,-58 395,-58"/>
<text text-anchor="start" x="398" y="-64.2" font-family="Helvetica,sans-Serif" font-size="12.00">pub_name</text>
<polygon fill="White" stroke="White" points="458,-58 458,-76 504,-76 504,-58 458,-58"/>
<polygon fill="none" stroke="black" points="458,-58 458,-76 504,-76 504,-58 458,-58"/>
<text text-anchor="start" x="461" y="-64.2" font-family="Helvetica,sans-Serif" font-size="12.00">varchar</text>
<polygon fill="White" stroke="White" points="395,-40 395,-58 458,-58 458,-40 395,-40"/>
<polygon fill="none" stroke="black" points="395,-40 395,-58 458,-58 458,-40 395,-40"/>
<text text-anchor="start" x="398" y="-46.2" font-family="Helvetica,sans-Serif" font-size="12.00">city</text>
<polygon fill="White" stroke="White" points="458,-40 458,-58 504,-58 504,-40 458,-40"/>
<polygon fill="none" stroke="black" points="458,-40 458,-58 504,-58 504,-40 458,-40"/>
<text text-anchor="start" x="461" y="-46.2" font-family="Helvetica,sans-Serif" font-size="12.00">varchar</text>
<polygon fill="White" stroke="White" points="395,-22 395,-40 458,-40 458,-22 395,-22"/>
<polygon fill="none" stroke="black" points="395,-22 395,-40 458,-40 458,-22 395,-22"/>
<text text-anchor="start" x="398" y="-28.2" font-family="Helvetica,sans-Serif" font-size="12.00">state</text>
<polygon fill="White" stroke="White" points="458,-22 458,-40 504,-40 504,-22 458,-22"/>
<polygon fill="none" stroke="black" points="458,-22 458,-40 504,-40 504,-22 458,-22"/>
<text text-anchor="start" x="461" y="-28.2" font-family="Helvetica,sans-Serif" font-size="12.00">char</text>
<polygon fill="White" stroke="White" points="395,-4 395,-22 458,-22 458,-4 395,-4"/>
<polygon fill="none" stroke="black" points="395,-4 395,-22 458,-22 458,-4 395,-4"/>
<text text-anchor="start" x="398" y="-10.2" font-family="Helvetica,sans-Serif" font-size="12.00">country</text>
<polygon fill="White" stroke="White" points="458,-4 458,-22 504,-22 504,-4 458,-4"/>
<polygon fill="none" stroke="black" points="458,-4 458,-22 504,-22 504,-4 458,-4"/>
<text text-anchor="start" x="461" y="-10.2" font-family="Helvetica,sans-Serif" font-size="12.00">varchar</text>
</g>
<!-- employee&#45;&gt;publishers -->
<g id="edge6" class="edge"><title>employee&#45;&gt;publishers</title>
<path fill="none" stroke="black" d="M527.367,-176.464C520.01,-165.479 515,-158 515,-158 515,-158 506.717,-145.826 496.019,-130.104"/>
<polygon fill="black" stroke="black" points="498.755,-127.904 490.236,-121.605 492.968,-131.841 498.755,-127.904"/>
</g>
<!-- pub_info -->
<g id="node9" class="node"><title>pub_info</title>
<polygon fill="Lavender" stroke="Lavender" points="404,-279 404,-302 498,-302 498,-279 404,-279"/>
<polygon fill="none" stroke="black" points="404,-279 404,-302 498,-302 498,-279 404,-279"/>
<text text-anchor="start" x="427.5" y="-287.7" font-family="Helvetica,sans-Serif" font-weight="bold" font-size="12.00">pub_info</text>
<polygon fill="White" stroke="White" points="404,-261 404,-279 447,-279 447,-261 404,-261"/>
<polygon fill="none" stroke="black" points="404,-261 404,-279 447,-279 447,-261 404,-261"/>
<text text-anchor="start" x="407" y="-267.2" font-family="Helvetica,sans-Serif" font-size="12.00">pub_id</text>
<polygon fill="White" stroke="White" points="447,-261 447,-279 498,-279 498,-261 447,-261"/>
<polygon fill="none" stroke="black" points="447,-261 447,-279 498,-279 498,-261 447,-261"/>
<text text-anchor="start" x="450" y="-267.2" font-family="Helvetica,sans-Serif" font-size="12.00">char</text>
<polygon fill="White" stroke="White" points="404,-243 404,-261 447,-261 447,-243 404,-243"/>
<polygon fill="none" stroke="black" points="404,-243 404,-261 447,-261 447,-243 404,-243"/>
<text text-anchor="start" x="407" y="-249.2" font-family="Helvetica,sans-Serif" font-size="12.00">logo</text>
<polygon fill="White" stroke="White" points="447,-243 447,-261 498,-261 498,-243 447,-243"/>
<polygon fill="none" stroke="black" points="447,-243 447,-261 498,-261 498,-243 447,-243"/>
<text text-anchor="start" x="450" y="-249.2" font-family="Helvetica,sans-Serif" font-size="12.00">longblob</text>
<polygon fill="White" stroke="White" points="404,-225 404,-243 447,-243 447,-225 404,-225"/>
<polygon fill="none" stroke="black" points="404,-225 404,-243 447,-243 447,-225 404,-225"/>
<text text-anchor="start" x="407" y="-231.2" font-family="Helvetica,sans-Serif" font-size="12.00">pr_info</text>
<polygon fill="White" stroke="White" points="447,-225 447,-243 498,-243 498,-225 447,-225"/>
<polygon fill="none" stroke="black" points="447,-225 447,-243 498,-243 498,-225 447,-225"/>
<text text-anchor="start" x="450" y="-231.2" font-family="Helvetica,sans-Serif" font-size="12.00">longtext</text>
</g>
<!-- pub_info&#45;&gt;publishers -->
<g id="edge8" class="edge"><title>pub_info&#45;&gt;publishers</title>
<path fill="none" stroke="black" d="M450.581,-221.445C450.326,-195.549 449.993,-161.819 449.699,-131.972"/>
<polygon fill="black" stroke="black" points="453.195,-131.561 449.597,-121.596 446.196,-131.63 453.195,-131.561"/>
</g>
<!-- titles -->
<g id="node11" class="node"><title>titles</title>
<polygon fill="Lavender" stroke="Lavender" points="262,-342 262,-365 371,-365 371,-342 262,-342"/>
<polygon fill="none" stroke="black" points="262,-342 262,-365 371,-365 371,-342 262,-342"/>
<text text-anchor="start" x="303" y="-350.7" font-family="Helvetica,sans-Serif" font-weight="bold" font-size="12.00">titles</text>
<polygon fill="White" stroke="White" points="262,-324 262,-342 319,-342 319,-324 262,-324"/>
<polygon fill="none" stroke="black" points="262,-324 262,-342 319,-342 319,-324 262,-324"/>
<text text-anchor="start" x="265" y="-330.2" font-family="Helvetica,sans-Serif" font-size="12.00">title_id</text>
<polygon fill="White" stroke="White" points="319,-324 319,-342 371,-342 371,-324 319,-324"/>
<polygon fill="none" stroke="black" points="319,-324 319,-342 371,-342 371,-324 319,-324"/>
<text text-anchor="start" x="322" y="-330.2" font-family="Helvetica,sans-Serif" font-size="12.00">varchar</text>
<polygon fill="White" stroke="White" points="262,-306 262,-324 319,-324 319,-306 262,-306"/>
<polygon fill="none" stroke="black" points="262,-306 262,-324 319,-324 319,-306 262,-306"/>
<text text-anchor="start" x="265" y="-312.2" font-family="Helvetica,sans-Serif" font-size="12.00">title</text>
<polygon fill="White" stroke="White" points="319,-306 319,-324 371,-324 371,-306 319,-306"/>
<polygon fill="none" stroke="black" points="319,-306 319,-324 371,-324 371,-306 319,-306"/>
<text text-anchor="start" x="322" y="-312.2" font-family="Helvetica,sans-Serif" font-size="12.00">varchar</text>
<polygon fill="White" stroke="White" points="262,-288 262,-306 319,-306 319,-288 262,-288"/>
<polygon fill="none" stroke="black" points="262,-288 262,-306 319,-306 319,-288 262,-288"/>
<text text-anchor="start" x="265" y="-294.2" font-family="Helvetica,sans-Serif" font-size="12.00">type</text>
<polygon fill="White" stroke="White" points="319,-288 319,-306 371,-306 371,-288 319,-288"/>
<polygon fill="none" stroke="black" points="319,-288 319,-306 371,-306 371,-288 319,-288"/>
<text text-anchor="start" x="322" y="-294.2" font-family="Helvetica,sans-Serif" font-size="12.00">char</text>
<polygon fill="White" stroke="White" points="262,-270 262,-288 319,-288 319,-270 262,-270"/>
<polygon fill="none" stroke="black" points="262,-270 262,-288 319,-288 319,-270 262,-270"/>
<text text-anchor="start" x="265" y="-276.2" font-family="Helvetica,sans-Serif" font-size="12.00">pub_id</text>
<polygon fill="White" stroke="White" points="319,-270 319,-288 371,-288 371,-270 319,-270"/>
<polygon fill="none" stroke="black" points="319,-270 319,-288 371,-288 371,-270 319,-270"/>
<text text-anchor="start" x="322" y="-276.2" font-family="Helvetica,sans-Serif" font-size="12.00">char</text>
<polygon fill="White" stroke="White" points="262,-252 262,-270 319,-270 319,-252 262,-252"/>
<polygon fill="none" stroke="black" points="262,-252 262,-270 319,-270 319,-252 262,-252"/>
<text text-anchor="start" x="265" y="-258.2" font-family="Helvetica,sans-Serif" font-size="12.00">price</text>
<polygon fill="White" stroke="White" points="319,-252 319,-270 371,-270 371,-252 319,-252"/>
<polygon fill="none" stroke="black" points="319,-252 319,-270 371,-270 371,-252 319,-252"/>
<text text-anchor="start" x="322" y="-258.2" font-family="Helvetica,sans-Serif" font-size="12.00">decimal</text>
<polygon fill="White" stroke="White" points="262,-234 262,-252 319,-252 319,-234 262,-234"/>
<polygon fill="none" stroke="black" points="262,-234 262,-252 319,-252 319,-234 262,-234"/>
<text text-anchor="start" x="265" y="-240.2" font-family="Helvetica,sans-Serif" font-size="12.00">advance</text>
<polygon fill="White" stroke="White" points="319,-234 319,-252 371,-252 371,-234 319,-234"/>
<polygon fill="none" stroke="black" points="319,-234 319,-252 371,-252 371,-234 319,-234"/>
<text text-anchor="start" x="322" y="-240.2" font-family="Helvetica,sans-Serif" font-size="12.00">decimal</text>
<polygon fill="White" stroke="White" points="262,-216 262,-234 319,-234 319,-216 262,-216"/>
<polygon fill="none" stroke="black" points="262,-216 262,-234 319,-234 319,-216 262,-216"/>
<text text-anchor="start" x="265" y="-222.2" font-family="Helvetica,sans-Serif" font-size="12.00">royalty</text>
<polygon fill="White" stroke="White" points="319,-216 319,-234 371,-234 371,-216 319,-216"/>
<polygon fill="none" stroke="black" points="319,-216 319,-234 371,-234 371,-216 319,-216"/>
<text text-anchor="start" x="322" y="-222.2" font-family="Helvetica,sans-Serif" font-size="12.00">int</text>
<polygon fill="White" stroke="White" points="262,-198 262,-216 319,-216 319,-198 262,-198"/>
<polygon fill="none" stroke="black" points="262,-198 262,-216 319,-216 319,-198 262,-198"/>
<text text-anchor="start" x="265" y="-204.2" font-family="Helvetica,sans-Serif" font-size="12.00">ytd_sales</text>
<polygon fill="White" stroke="White" points="319,-198 319,-216 371,-216 371,-198 319,-198"/>
<polygon fill="none" stroke="black" points="319,-198 319,-216 371,-216 371,-198 319,-198"/>
<text text-anchor="start" x="322" y="-204.2" font-family="Helvetica,sans-Serif" font-size="12.00">int</text>
<polygon fill="White" stroke="White" points="262,-180 262,-198 319,-198 319,-180 262,-180"/>
<polygon fill="none" stroke="black" points="262,-180 262,-198 319,-198 319,-180 262,-180"/>
<text text-anchor="start" x="265" y="-186.2" font-family="Helvetica,sans-Serif" font-size="12.00">notes</text>
<polygon fill="White" stroke="White" points="319,-180 319,-198 371,-198 371,-180 319,-180"/>
<polygon fill="none" stroke="black" points="319,-180 319,-198 371,-198 371,-180 319,-180"/>
<text text-anchor="start" x="322" y="-186.2" font-family="Helvetica,sans-Serif" font-size="12.00">varchar</text>
<polygon fill="White" stroke="White" points="262,-162 262,-180 319,-180 319,-162 262,-162"/>
<polygon fill="none" stroke="black" points="262,-162 262,-180 319,-180 319,-162 262,-162"/>
<text text-anchor="start" x="265" y="-168.2" font-family="Helvetica,sans-Serif" font-size="12.00">pubdate</text>
<polygon fill="White" stroke="White" points="319,-162 319,-180 371,-180 371,-162 319,-162"/>
<polygon fill="none" stroke="black" points="319,-162 319,-180 371,-180 371,-162 319,-162"/>
<text text-anchor="start" x="322" y="-168.2" font-family="Helvetica,sans-Serif" font-size="12.00">datetime</text>
</g>
<!-- titles&#45;&gt;publishers -->
<g id="edge20" class="edge"><title>titles&#45;&gt;publishers</title>
<path fill="none" stroke="black" d="M378.022,-169.335C386.661,-156.149 395.401,-142.809 403.655,-130.21"/>
<polygon fill="black" stroke="black" points="406.733,-131.9 409.285,-121.617 400.877,-128.064 406.733,-131.9"/>
</g>
<!-- roysched -->
<g id="node12" class="node"><title>roysched</title>
<polygon fill="Lavender" stroke="Lavender" points="304,-500 304,-523 397,-523 397,-500 304,-500"/>
<polygon fill="none" stroke="black" points="304,-500 304,-523 397,-523 397,-500 304,-500"/>
<text text-anchor="start" x="325.5" y="-508.7" font-family="Helvetica,sans-Serif" font-weight="bold" font-size="12.00">roysched</text>
<polygon fill="White" stroke="White" points="304,-482 304,-500 351,-500 351,-482 304,-482"/>
<polygon fill="none" stroke="black" points="304,-482 304,-500 351,-500 351,-482 304,-482"/>
<text text-anchor="start" x="307" y="-488.2" font-family="Helvetica,sans-Serif" font-size="12.00">title_id</text>
<polygon fill="White" stroke="White" points="351,-482 351,-500 397,-500 397,-482 351,-482"/>
<polygon fill="none" stroke="black" points="351,-482 351,-500 397,-500 397,-482 351,-482"/>
<text text-anchor="start" x="354" y="-488.2" font-family="Helvetica,sans-Serif" font-size="12.00">varchar</text>
<polygon fill="White" stroke="White" points="304,-464 304,-482 351,-482 351,-464 304,-464"/>
<polygon fill="none" stroke="black" points="304,-464 304,-482 351,-482 351,-464 304,-464"/>
<text text-anchor="start" x="307" y="-470.2" font-family="Helvetica,sans-Serif" font-size="12.00">lorange</text>
<polygon fill="White" stroke="White" points="351,-464 351,-482 397,-482 397,-464 351,-464"/>
<polygon fill="none" stroke="black" points="351,-464 351,-482 397,-482 397,-464 351,-464"/>
<text text-anchor="start" x="354" y="-470.2" font-family="Helvetica,sans-Serif" font-size="12.00">int</text>
<polygon fill="White" stroke="White" points="304,-446 304,-464 351,-464 351,-446 304,-446"/>
<polygon fill="none" stroke="black" points="304,-446 304,-464 351,-464 351,-446 304,-446"/>
<text text-anchor="start" x="307" y="-452.2" font-family="Helvetica,sans-Serif" font-size="12.00">hirange</text>
<polygon fill="White" stroke="White" points="351,-446 351,-464 397,-464 397,-446 351,-446"/>
<polygon fill="none" stroke="black" points="351,-446 351,-464 397,-464 397,-446 351,-446"/>
<text text-anchor="start" x="354" y="-452.2" font-family="Helvetica,sans-Serif" font-size="12.00">int</text>
<polygon fill="White" stroke="White" points="304,-428 304,-446 351,-446 351,-428 304,-428"/>
<polygon fill="none" stroke="black" points="304,-428 304,-446 351,-446 351,-428 304,-428"/>
<text text-anchor="start" x="307" y="-434.2" font-family="Helvetica,sans-Serif" font-size="12.00">royalty</text>
<polygon fill="White" stroke="White" points="351,-428 351,-446 397,-446 397,-428 351,-428"/>
<polygon fill="none" stroke="black" points="351,-428 351,-446 397,-446 397,-428 351,-428"/>
<text text-anchor="start" x="354" y="-434.2" font-family="Helvetica,sans-Serif" font-size="12.00">int</text>
</g>
<!-- roysched&#45;&gt;titles -->
<g id="edge10" class="edge"><title>roysched&#45;&gt;titles</title>
<path fill="none" stroke="black" d="M341.726,-424.41C339.533,-410.737 337.075,-395.406 334.57,-379.789"/>
<polygon fill="black" stroke="black" points="337.959,-378.82 332.92,-369.5 331.048,-379.928 337.959,-378.82"/>
</g>
<!-- sales -->
<g id="node14" class="node"><title>sales</title>
<polygon fill="Lavender" stroke="Lavender" points="162,-518 162,-541 270,-541 270,-518 162,-518"/>
<polygon fill="none" stroke="black" points="162,-518 162,-541 270,-541 270,-518 162,-518"/>
<text text-anchor="start" x="201.5" y="-526.7" font-family="Helvetica,sans-Serif" font-weight="bold" font-size="12.00">sales</text>
<polygon fill="White" stroke="White" points="162,-500 162,-518 218,-518 218,-500 162,-500"/>
<polygon fill="none" stroke="black" points="162,-500 162,-518 218,-518 218,-500 162,-500"/>
<text text-anchor="start" x="165" y="-506.2" font-family="Helvetica,sans-Serif" font-size="12.00">stor_id</text>
<polygon fill="White" stroke="White" points="218,-500 218,-518 270,-518 270,-500 218,-500"/>
<polygon fill="none" stroke="black" points="218,-500 218,-518 270,-518 270,-500 218,-500"/>
<text text-anchor="start" x="221" y="-506.2" font-family="Helvetica,sans-Serif" font-size="12.00">char</text>
<polygon fill="White" stroke="White" points="162,-482 162,-500 218,-500 218,-482 162,-482"/>
<polygon fill="none" stroke="black" points="162,-482 162,-500 218,-500 218,-482 162,-482"/>
<text text-anchor="start" x="165" y="-488.2" font-family="Helvetica,sans-Serif" font-size="12.00">ord_num</text>
<polygon fill="White" stroke="White" points="218,-482 218,-500 270,-500 270,-482 218,-482"/>
<polygon fill="none" stroke="black" points="218,-482 218,-500 270,-500 270,-482 218,-482"/>
<text text-anchor="start" x="221" y="-488.2" font-family="Helvetica,sans-Serif" font-size="12.00">varchar</text>
<polygon fill="White" stroke="White" points="162,-464 162,-482 218,-482 218,-464 162,-464"/>
<polygon fill="none" stroke="black" points="162,-464 162,-482 218,-482 218,-464 162,-464"/>
<text text-anchor="start" x="165" y="-470.2" font-family="Helvetica,sans-Serif" font-size="12.00">ord_date</text>
<polygon fill="White" stroke="White" points="218,-464 218,-482 270,-482 270,-464 218,-464"/>
<polygon fill="none" stroke="black" points="218,-464 218,-482 270,-482 270,-464 218,-464"/>
<text text-anchor="start" x="221" y="-470.2" font-family="Helvetica,sans-Serif" font-size="12.00">datetime</text>
<polygon fill="White" stroke="White" points="162,-446 162,-464 218,-464 218,-446 162,-446"/>
<polygon fill="none" stroke="black" points="162,-446 162,-464 218,-464 218,-446 162,-446"/>
<text text-anchor="start" x="165" y="-452.2" font-family="Helvetica,sans-Serif" font-size="12.00">qty</text>
<polygon fill="White" stroke="White" points="218,-446 218,-464 270,-464 270,-446 218,-446"/>
<polygon fill="none" stroke="black" points="218,-446 218,-464 270,-464 270,-446 218,-446"/>
<text text-anchor="start" x="221" y="-452.2" font-family="Helvetica,sans-Serif" font-size="12.00">smallint</text>
<polygon fill="White" stroke="White" points="162,-428 162,-446 218,-446 218,-428 162,-428"/>
<polygon fill="none" stroke="black" points="162,-428 162,-446 218,-446 218,-428 162,-428"/>
<text text-anchor="start" x="165" y="-434.2" font-family="Helvetica,sans-Serif" font-size="12.00">payterms</text>
<polygon fill="White" stroke="White" points="218,-428 218,-446 270,-446 270,-428 218,-428"/>
<polygon fill="none" stroke="black" points="218,-428 218,-446 270,-446 270,-428 218,-428"/>
<text text-anchor="start" x="221" y="-434.2" font-family="Helvetica,sans-Serif" font-size="12.00">varchar</text>
<polygon fill="White" stroke="White" points="162,-410 162,-428 218,-428 218,-410 162,-410"/>
<polygon fill="none" stroke="black" points="162,-410 162,-428 218,-428 218,-410 162,-410"/>
<text text-anchor="start" x="165" y="-416.2" font-family="Helvetica,sans-Serif" font-size="12.00">title_id</text>
<polygon fill="White" stroke="White" points="218,-410 218,-428 270,-428 270,-410 218,-410"/>
<polygon fill="none" stroke="black" points="218,-410 218,-428 270,-428 270,-410 218,-410"/>
<text text-anchor="start" x="221" y="-416.2" font-family="Helvetica,sans-Serif" font-size="12.00">varchar</text>
</g>
<!-- sales&#45;&gt;stores -->
<g id="edge12" class="edge"><title>sales&#45;&gt;stores</title>
<path fill="none" stroke="black" d="M189.037,-406.29C181.224,-386.091 172.638,-363.894 164.619,-343.162"/>
<polygon fill="black" stroke="black" points="167.852,-341.816 160.98,-333.752 161.323,-344.342 167.852,-341.816"/>
</g>
<!-- sales&#45;&gt;titles -->
<g id="edge14" class="edge"><title>sales&#45;&gt;titles</title>
<path fill="none" stroke="black" d="M248.882,-406.29C253.024,-397.51 257.343,-388.352 261.707,-379.102"/>
<polygon fill="black" stroke="black" points="264.979,-380.368 266.08,-369.831 258.648,-377.382 264.979,-380.368"/>
</g>
<!-- authors -->
<g id="node17" class="node"><title>authors</title>
<polygon fill="Lavender" stroke="Lavender" points="674,-333 674,-356 780,-356 780,-333 674,-333"/>
<polygon fill="none" stroke="black" points="674,-333 674,-356 780,-356 780,-333 674,-333"/>
<text text-anchor="start" x="706.5" y="-341.7" font-family="Helvetica,sans-Serif" font-weight="bold" font-size="12.00">authors</text>
<polygon fill="White" stroke="White" points="674,-315 674,-333 734,-333 734,-315 674,-315"/>
<polygon fill="none" stroke="black" points="674,-315 674,-333 734,-333 734,-315 674,-315"/>
<text text-anchor="start" x="677" y="-321.2" font-family="Helvetica,sans-Serif" font-size="12.00">au_id</text>
<polygon fill="White" stroke="White" points="734,-315 734,-333 780,-333 780,-315 734,-315"/>
<polygon fill="none" stroke="black" points="734,-315 734,-333 780,-333 780,-315 734,-315"/>
<text text-anchor="start" x="737" y="-321.2" font-family="Helvetica,sans-Serif" font-size="12.00">varchar</text>
<polygon fill="White" stroke="White" points="674,-297 674,-315 734,-315 734,-297 674,-297"/>
<polygon fill="none" stroke="black" points="674,-297 674,-315 734,-315 734,-297 674,-297"/>
<text text-anchor="start" x="677" y="-303.2" font-family="Helvetica,sans-Serif" font-size="12.00">au_lname</text>
<polygon fill="White" stroke="White" points="734,-297 734,-315 780,-315 780,-297 734,-297"/>
<polygon fill="none" stroke="black" points="734,-297 734,-315 780,-315 780,-297 734,-297"/>
<text text-anchor="start" x="737" y="-303.2" font-family="Helvetica,sans-Serif" font-size="12.00">varchar</text>
<polygon fill="White" stroke="White" points="674,-279 674,-297 734,-297 734,-279 674,-279"/>
<polygon fill="none" stroke="black" points="674,-279 674,-297 734,-297 734,-279 674,-279"/>
<text text-anchor="start" x="677" y="-285.2" font-family="Helvetica,sans-Serif" font-size="12.00">au_fname</text>
<polygon fill="White" stroke="White" points="734,-279 734,-297 780,-297 780,-279 734,-279"/>
<polygon fill="none" stroke="black" points="734,-279 734,-297 780,-297 780,-279 734,-279"/>
<text text-anchor="start" x="737" y="-285.2" font-family="Helvetica,sans-Serif" font-size="12.00">varchar</text>
<polygon fill="White" stroke="White" points="674,-261 674,-279 734,-279 734,-261 674,-261"/>
<polygon fill="none" stroke="black" points="674,-261 674,-279 734,-279 734,-261 674,-261"/>
<text text-anchor="start" x="677" y="-267.2" font-family="Helvetica,sans-Serif" font-size="12.00">phone</text>
<polygon fill="White" stroke="White" points="734,-261 734,-279 780,-279 780,-261 734,-261"/>
<polygon fill="none" stroke="black" points="734,-261 734,-279 780,-279 780,-261 734,-261"/>
<text text-anchor="start" x="737" y="-267.2" font-family="Helvetica,sans-Serif" font-size="12.00">char</text>
<polygon fill="White" stroke="White" points="674,-243 674,-261 734,-261 734,-243 674,-243"/>
<polygon fill="none" stroke="black" points="674,-243 674,-261 734,-261 734,-243 674,-243"/>
<text text-anchor="start" x="677" y="-249.2" font-family="Helvetica,sans-Serif" font-size="12.00">address</text>
<polygon fill="White" stroke="White" points="734,-243 734,-261 780,-261 780,-243 734,-243"/>
<polygon fill="none" stroke="black" points="734,-243 734,-261 780,-261 780,-243 734,-243"/>
<text text-anchor="start" x="737" y="-249.2" font-family="Helvetica,sans-Serif" font-size="12.00">varchar</text>
<polygon fill="White" stroke="White" points="674,-225 674,-243 734,-243 734,-225 674,-225"/>
<polygon fill="none" stroke="black" points="674,-225 674,-243 734,-243 734,-225 674,-225"/>
<text text-anchor="start" x="677" y="-231.2" font-family="Helvetica,sans-Serif" font-size="12.00">city</text>
<polygon fill="White" stroke="White" points="734,-225 734,-243 780,-243 780,-225 734,-225"/>
<polygon fill="none" stroke="black" points="734,-225 734,-243 780,-243 780,-225 734,-225"/>
<text text-anchor="start" x="737" y="-231.2" font-family="Helvetica,sans-Serif" font-size="12.00">varchar</text>
<polygon fill="White" stroke="White" points="674,-207 674,-225 734,-225 734,-207 674,-207"/>
<polygon fill="none" stroke="black" points="674,-207 674,-225 734,-225 734,-207 674,-207"/>
<text text-anchor="start" x="677" y="-213.2" font-family="Helvetica,sans-Serif" font-size="12.00">state</text>
<polygon fill="White" stroke="White" points="734,-207 734,-225 780,-225 780,-207 734,-207"/>
<polygon fill="none" stroke="black" points="734,-207 734,-225 780,-225 780,-207 734,-207"/>
<text text-anchor="start" x="737" y="-213.2" font-family="Helvetica,sans-Serif" font-size="12.00">char</text>
<polygon fill="White" stroke="White" points="674,-189 674,-207 734,-207 734,-189 674,-189"/>
<polygon fill="none" stroke="black" points="674,-189 674,-207 734,-207 734,-189 674,-189"/>
<text text-anchor="start" x="677" y="-195.2" font-family="Helvetica,sans-Serif" font-size="12.00">zip</text>
<polygon fill="White" stroke="White" points="734,-189 734,-207 780,-207 780,-189 734,-189"/>
<polygon fill="none" stroke="black" points="734,-189 734,-207 780,-207 780,-189 734,-189"/>
<text text-anchor="start" x="737" y="-195.2" font-family="Helvetica,sans-Serif" font-size="12.00">char</text>
<polygon fill="White" stroke="White" points="674,-171 674,-189 734,-189 734,-171 674,-171"/>
<polygon fill="none" stroke="black" points="674,-171 674,-189 734,-189 734,-171 674,-171"/>
<text text-anchor="start" x="677" y="-177.2" font-family="Helvetica,sans-Serif" font-size="12.00">contract</text>
<polygon fill="White" stroke="White" points="734,-171 734,-189 780,-189 780,-171 734,-171"/>
<polygon fill="none" stroke="black" points="734,-171 734,-189 780,-189 780,-171 734,-171"/>
<text text-anchor="start" x="737" y="-177.2" font-family="Helvetica,sans-Serif" font-size="12.00">tinyint</text>
</g>
<!-- titleauthor -->
<g id="node18" class="node"><title>titleauthor</title>
<polygon fill="Lavender" stroke="Lavender" points="503,-500 503,-523 608,-523 608,-500 503,-500"/>
<polygon fill="none" stroke="black" points="503,-500 503,-523 608,-523 608,-500 503,-500"/>
<text text-anchor="start" x="528" y="-508.7" font-family="Helvetica,sans-Serif" font-weight="bold" font-size="12.00">titleauthor</text>
<polygon fill="White" stroke="White" points="503,-482 503,-500 562,-500 562,-482 503,-482"/>
<polygon fill="none" stroke="black" points="503,-482 503,-500 562,-500 562,-482 503,-482"/>
<text text-anchor="start" x="506" y="-488.2" font-family="Helvetica,sans-Serif" font-size="12.00">au_id</text>
<polygon fill="White" stroke="White" points="562,-482 562,-500 608,-500 608,-482 562,-482"/>
<polygon fill="none" stroke="black" points="562,-482 562,-500 608,-500 608,-482 562,-482"/>
<text text-anchor="start" x="565" y="-488.2" font-family="Helvetica,sans-Serif" font-size="12.00">varchar</text>
<polygon fill="White" stroke="White" points="503,-464 503,-482 562,-482 562,-464 503,-464"/>
<polygon fill="none" stroke="black" points="503,-464 503,-482 562,-482 562,-464 503,-464"/>
<text text-anchor="start" x="506" y="-470.2" font-family="Helvetica,sans-Serif" font-size="12.00">title_id</text>
<polygon fill="White" stroke="White" points="562,-464 562,-482 608,-482 608,-464 562,-464"/>
<polygon fill="none" stroke="black" points="562,-464 562,-482 608,-482 608,-464 562,-464"/>
<text text-anchor="start" x="565" y="-470.2" font-family="Helvetica,sans-Serif" font-size="12.00">varchar</text>
<polygon fill="White" stroke="White" points="503,-446 503,-464 562,-464 562,-446 503,-446"/>
<polygon fill="none" stroke="black" points="503,-446 503,-464 562,-464 562,-446 503,-446"/>
<text text-anchor="start" x="506" y="-452.2" font-family="Helvetica,sans-Serif" font-size="12.00">au_ord</text>
<polygon fill="White" stroke="White" points="562,-446 562,-464 608,-464 608,-446 562,-446"/>
<polygon fill="none" stroke="black" points="562,-446 562,-464 608,-464 608,-446 562,-446"/>
<text text-anchor="start" x="565" y="-452.2" font-family="Helvetica,sans-Serif" font-size="12.00">tinyint</text>
<polygon fill="White" stroke="White" points="503,-428 503,-446 562,-446 562,-428 503,-428"/>
<polygon fill="none" stroke="black" points="503,-428 503,-446 562,-446 562,-428 503,-428"/>
<text text-anchor="start" x="506" y="-434.2" font-family="Helvetica,sans-Serif" font-size="12.00">royaltyper</text>
<polygon fill="White" stroke="White" points="562,-428 562,-446 608,-446 608,-428 562,-428"/>
<polygon fill="none" stroke="black" points="562,-428 562,-446 608,-446 608,-428 562,-428"/>
<text text-anchor="start" x="565" y="-434.2" font-family="Helvetica,sans-Serif" font-size="12.00">int</text>
</g>
<!-- titleauthor&#45;&gt;titles -->
<g id="edge18" class="edge"><title>titleauthor&#45;&gt;titles</title>
<path fill="none" stroke="black" d="M494.823,-438.031C446.617,-407.615 387,-370 387,-370 387,-370 385.759,-368.147 383.605,-364.932"/>
<polygon fill="black" stroke="black" points="386.481,-362.936 378.008,-356.575 380.665,-366.831 386.481,-362.936"/>
</g>
<!-- titleauthor&#45;&gt;authors -->
<g id="edge16" class="edge"><title>titleauthor&#45;&gt;authors</title>
<path fill="none" stroke="black" d="M604.805,-424.242C630.697,-397.335 657,-370 657,-370 657,-370 658.223,-368.147 660.347,-364.932"/>
<polygon fill="black" stroke="black" points="663.276,-366.848 665.866,-356.575 657.434,-362.991 663.276,-366.848"/>
</g>
</g>
</svg>
